# Blender v2.78 (sub 0) OBJ File: ''
# www.blender.org
mtllib steveHead.mtl
o Steve_Head
v -1.000000 8.474034 1.006574
v -1.000000 6.474077 0.993384
v -1.000000 6.474077 0.993384
v -1.000000 8.474034 1.006574
v 1.000000 8.474034 1.006574
v 0.999999 8.487225 -0.993382
v -1.000000 8.487224 -0.993382
v -1.000000 6.487268 -1.006572
v 1.000000 8.474034 1.006574
v 1.000000 6.487268 -1.006572
v 1.000000 6.474078 0.993384
v 1.000000 6.474078 0.993384
vt 0.3767 0.7493
vt 0.3759 0.5035
vt 0.3759 0.5035
vt 0.3767 0.7493
vt 0.1255 0.7559
vt 0.2491 0.7560
vt 0.2491 0.9999
vt 0.1258 0.9999
vt 0.5007 0.7500
vt 0.5000 0.5025
vt 0.1258 0.9999
vt 0.1255 0.7559
vt 0.2540 0.7619
vt 0.3692 0.7619
vt 0.3692 0.9918
vt 0.2540 0.9918
vt 1.0000 1.0000
vt 1.0000 0.0000
vt 1.0000 0.0000
vt 1.0000 1.0000
vt 0.1238 0.5013
vt 0.1242 0.7503
vt 0.0021 0.7535
vt 0.0013 0.5033
vt 0.1257 0.5033
vt 0.2508 0.5033
vt 0.2511 0.7488
vt 0.1262 0.7475
vt 0.1262 0.7475
vt 0.1257 0.5033
vt 0.2493 0.5042
vt 0.3749 0.5064
vt 0.3749 0.7496
vt 0.2501 0.7473
vn -0.4074 0.4073 0.8174
vn -0.4091 -0.4091 0.8156
vn 0.0000 -0.0022 1.0000
vn 0.4074 0.4073 0.8174
vn 0.5774 0.5811 -0.5735
vn -0.5774 0.5811 -0.5735
vn -0.5774 -0.5735 -0.5811
vn 0.5774 -0.5735 -0.5811
vn 0.4091 -0.4091 0.8156
usemtl Steve
s 1
f 1/1/1 2/2/2 3/3/3 4/4/3
f 5/5/4 6/6/5 7/7/6 1/8/1
f 1/1/1 7/9/6 8/10/7 2/2/2
f 5/5/4 1/8/1 4/11/3 9/12/3
f 10/13/8 11/14/9 2/15/2 8/16/7
f 2/17/2 11/18/9 12/19/3 3/20/3
f 12/21/3 9/22/3 4/23/3 3/24/3
f 11/25/9 10/26/8 6/27/5 5/28/4
f 11/25/9 5/28/4 9/29/3 12/30/3
f 10/31/8 8/32/7 7/33/6 6/34/5
