# Blender v2.78 (sub 0) OBJ File: ''
# www.blender.org
mtllib steveBody.mtl
o Steve_Body
v -0.521593 6.486256 -1.131609
v -0.521593 6.486256 1.163830
v 0.521593 6.486256 1.163829
v 0.521592 6.486256 -1.131610
v -0.521593 3.491547 -1.131609
v -0.521592 3.491547 1.163830
v 0.521593 3.491547 -1.131609
v 0.521593 3.491547 1.163829
vt 0.4394 0.5011
vt 0.3130 0.4945
vt 0.3146 0.3735
vt 0.4410 0.3801
vt 0.6222 0.3753
vt 0.6255 0.0057
vt 0.5090 0.0005
vt 0.5057 0.3700
vt 0.5000 -0.0052
vt 0.5000 0.3708
vt 0.4412 0.3708
vt 0.4412 -0.0052
vt 0.3092 0.3734
vt 0.3092 -0.0025
vt 0.2496 -0.0025
vt 0.2496 0.3734
vt 0.3127 0.3722
vt 0.3127 0.0002
vt 0.4389 0.0002
vt 0.4389 0.3722
vt 0.1837 0.4944
vt 0.1276 0.4966
vt 0.1293 0.3824
vt 0.1854 0.3802
vn -0.5774 0.5774 -0.5773
vn -0.5773 0.5774 0.5774
vn 0.5774 0.5774 0.5773
vn 0.5773 0.5774 -0.5774
vn -0.5774 -0.5774 -0.5774
vn -0.5773 -0.5774 0.5774
vn 0.5774 -0.5774 -0.5774
vn 0.5774 -0.5774 0.5773
usemtl Steve
s 1
f 1/1/1 2/2/2 3/3/3 4/4/4
f 1/5/1 5/6/5 6/7/6 2/8/2
f 5/9/5 1/10/1 4/11/4 7/12/7
f 2/13/2 6/14/6 8/15/8 3/16/3
f 3/17/3 8/18/8 7/19/7 4/20/4
f 5/21/5 7/22/7 8/23/8 6/24/6
